<svg id="logoipsum-331" xmlns="http://www.w3.org/2000/svg" width="110.698" height="86.028" viewBox="0 0 110.698 86.028">
  <path id="Pfad_12" data-name="Pfad 12" d="M98.412,65.363a2.344,2.344,0,0,1,2.383,2.57v2.7H99.759V68.1c0-.93-.459-1.745-1.421-1.745-.93,0-1.4.782-1.4,1.725V70.63H95.9V68.079c0-.939-.469-1.723-1.423-1.723s-1.39.814-1.39,1.745V70.63H92.059V67.944a2.329,2.329,0,0,1,2.351-2.582,2,2,0,0,1,2.027,1.318,1.991,1.991,0,0,1,1.975-1.316Zm-9.993,4.388c.95,0,1.473-.826,1.473-1.776V65.509h1.034V68.1a2.5,2.5,0,1,1-5-.011V65.509h1.034v2.477C86.965,68.925,87.479,69.752,88.419,69.752Zm-5.405.992a2.181,2.181,0,0,1-2.081-1.138l.8-.438a1.255,1.255,0,0,0,1.244.7c.585,0,1.034-.241,1.034-.69,0-1.077-2.936-.261-2.936-2.216A1.7,1.7,0,0,1,82.982,65.4,2.072,2.072,0,0,1,84.9,66.439l-.793.451A1.127,1.127,0,0,0,83,66.282c-.48,0-.9.25-.9.657,0,1.047,2.936.283,2.936,2.216,0,.972-.939,1.588-2.027,1.588Zm-7.1,2.236H74.874V68.058A2.648,2.648,0,0,1,77.6,65.382a2.676,2.676,0,0,1,2.717,2.676,2.6,2.6,0,0,1-2.676,2.7,2.362,2.362,0,0,1-1.734-.762v2.989Zm1.692-3.2a1.708,1.708,0,1,0-1.692-1.714A1.694,1.694,0,0,0,77.6,69.783Zm-5.133-4.274H73.5V70.63H72.469Zm13.955-4.673a13.462,13.462,0,1,1,13.935-13.479A13.61,13.61,0,0,1,86.424,60.836Zm0-8.564a4.89,4.89,0,1,0-4.814-4.866,4.729,4.729,0,0,0,4.814,4.866ZM55.266,72.49c-6.283,0-10.845-2.786-13.176-7.753l7.551-4.053a5.643,5.643,0,0,0,5.473,3.5c3.293,0,5.473-2.078,5.726-5.726a8.885,8.885,0,0,1-6.03,1.875,12.61,12.61,0,0,1-12.72-13.022c0-7.348,6.031-13.326,13.936-13.326,8.107,0,13.935,5.625,13.935,13.376V57.39c0,9.121-6.335,15.1-14.7,15.1Zm.607-20.725A4.565,4.565,0,0,0,60.687,47.1a4.514,4.514,0,0,0-4.814-4.56,4.541,4.541,0,0,0-4.812,4.56,4.594,4.594,0,0,0,4.812,4.664ZM26.619,60.836a13.462,13.462,0,1,1,0-26.907,13.462,13.462,0,1,1,0,26.907Zm0-8.564a4.89,4.89,0,1,0-4.814-4.866,4.729,4.729,0,0,0,4.814,4.866ZM0,23.085H9.121v36.99H0ZM110.7,37.037a3.13,3.13,0,1,1-3.13-3.13A3.13,3.13,0,0,1,110.7,37.037Z" transform="translate(0 13.046)" fill="#fff"/>
  <path id="Pfad_13" data-name="Pfad 13" d="M85.133,15.127a51.645,51.645,0,0,1,15.049,33.687,18.572,18.572,0,0,0-10.268-6.1A42.255,42.255,0,0,0,11.507,31.434H1.086A51.645,51.645,0,0,1,85.133,15.127ZM13.2,47.186ZM25.076,42.3ZM40.7,49.209ZM54.3,42.359ZM70.7,49.745ZM84.644,42.311Z" transform="translate(0.614 0.002)" fill="#ffd43e" fill-rule="evenodd"/>
  <path id="Pfad_14" data-name="Pfad 14" d="M74.731,18.376A42.256,42.256,0,0,1,86.152,39.319a19.622,19.622,0,0,0-4.1-.432,19.338,19.338,0,0,0-5.473.781A32.863,32.863,0,0,0,12.708,41.4,18.467,18.467,0,0,0,9.44,43.795V28.043h-1.7a42.255,42.255,0,0,1,66.987-9.667ZM36.942,45.819a18.591,18.591,0,0,0-11.4-6.654A18.6,18.6,0,0,1,36.942,45.819Z" transform="translate(4.375 3.393)" fill="#ee8e1d" fill-rule="evenodd"/>
  <path id="Pfad_15" data-name="Pfad 15" d="M62.472,38.171a23.475,23.475,0,0,0-44.779-6.035,18.684,18.684,0,0,1,13.628,6.9A18.788,18.788,0,0,1,46.03,32.16a18.535,18.535,0,0,1,15.285,7.415Q61.858,38.845,62.472,38.171Z" transform="translate(9.996 10.172)" fill="#971c1c"/>
  <path id="Pfad_16" data-name="Pfad 16" d="M74.782,36.279A18.545,18.545,0,0,0,66.3,41.561a23.475,23.475,0,0,0-44.778-6.035q-.535-.028-1.07-.028a19.064,19.064,0,0,0-9.536,2.515,32.865,32.865,0,0,1,63.868-1.734Z" transform="translate(6.168 6.782)" fill="#d62727" fill-rule="evenodd"/>
</svg>
