<svg id="logoipsum-331" xmlns="http://www.w3.org/2000/svg" width="109.326" height="84.961" viewBox="0 0 109.326 84.961">
  <path id="Pfad_12" data-name="Pfad 12" d="M97.191,64.839a2.315,2.315,0,0,1,2.354,2.538V70.04H98.522v-2.5c0-.918-.453-1.723-1.4-1.723-.918,0-1.382.773-1.382,1.7V70.04H94.715V67.521c0-.927-.464-1.7-1.4-1.7s-1.372.8-1.372,1.723v2.5h-1.02V67.388a2.3,2.3,0,0,1,2.321-2.55,1.973,1.973,0,0,1,2,1.3,1.967,1.967,0,0,1,1.951-1.3Zm-9.869,4.334c.938,0,1.454-.816,1.454-1.754V64.983H89.8v2.559a2.472,2.472,0,1,1-4.934-.011V64.983h1.022v2.447C85.887,68.357,86.394,69.173,87.323,69.173Zm-5.338.98a2.154,2.154,0,0,1-2.056-1.124l.785-.433a1.24,1.24,0,0,0,1.229.691c.578,0,1.022-.238,1.022-.682,0-1.063-2.9-.258-2.9-2.189a1.679,1.679,0,0,1,1.889-1.538,2.047,2.047,0,0,1,1.9,1.022l-.784.445a1.113,1.113,0,0,0-1.094-.6c-.474,0-.887.247-.887.649,0,1.034,2.9.28,2.9,2.189,0,.96-.927,1.569-2,1.569Zm-7.015,2.209H73.945V67.5a2.615,2.615,0,0,1,2.694-2.643A2.643,2.643,0,0,1,79.323,67.5a2.57,2.57,0,0,1-2.643,2.663,2.333,2.333,0,0,1-1.713-.753v2.952ZM76.639,69.2a1.687,1.687,0,1,0-1.671-1.692A1.673,1.673,0,0,0,76.639,69.2Zm-5.07-4.221h1.02V70.04H71.57Zm13.782-4.615A13.295,13.295,0,1,1,99.114,47.056,13.441,13.441,0,0,1,85.352,60.368Zm0-8.457A4.83,4.83,0,1,0,80.6,47.1a4.67,4.67,0,0,0,4.754,4.805ZM54.581,71.878c-6.206,0-10.711-2.751-13.012-7.657l7.457-4a5.573,5.573,0,0,0,5.4,3.453c3.252,0,5.4-2.053,5.655-5.655a8.774,8.774,0,0,1-5.955,1.852A12.453,12.453,0,0,1,41.569,47.006c0-7.257,5.957-13.161,13.763-13.161,8.006,0,13.762,5.555,13.762,13.21v9.909c0,9.008-6.257,14.913-14.513,14.913Zm.6-20.468a4.508,4.508,0,0,0,4.754-4.6,4.458,4.458,0,0,0-4.754-4.5,4.485,4.485,0,0,0-4.753,4.5,4.537,4.537,0,0,0,4.753,4.606ZM26.289,60.368a13.295,13.295,0,1,1,0-26.573,13.295,13.295,0,1,1,0,26.573Zm0-8.457A4.83,4.83,0,1,0,21.535,47.1a4.67,4.67,0,0,0,4.754,4.805ZM0,23.085H9.008V59.616H0ZM109.326,36.864a3.091,3.091,0,1,1-3.091-3.091A3.091,3.091,0,0,1,109.326,36.864Z" transform="translate(0 12.598)" fill="#113441"/>
  <path id="Pfad_13" data-name="Pfad 13" d="M84.09,14.939A51,51,0,0,1,98.953,48.208,18.341,18.341,0,0,0,88.812,42.18,41.731,41.731,0,0,0,11.378,31.044H1.086a51,51,0,0,1,83-16.1ZM13.052,46.6ZM24.778,41.775ZM40.213,48.6ZM53.636,41.834ZM69.835,49.128ZM83.608,41.786Z" transform="translate(0.593 0.002)" fill="#ffd43e" fill-rule="evenodd"/>
  <path id="Pfad_14" data-name="Pfad 14" d="M73.9,18.223a41.732,41.732,0,0,1,11.28,20.683,19.378,19.378,0,0,0-4.053-.427,19.1,19.1,0,0,0-5.4.771,32.456,32.456,0,0,0-63.075,1.713,18.238,18.238,0,0,0-3.227,2.363V27.77H7.744A41.731,41.731,0,0,1,73.9,18.223Zm-37.32,27.1a18.36,18.36,0,0,0-11.258-6.572A18.364,18.364,0,0,1,36.58,45.325Z" transform="translate(4.225 3.276)" fill="#ee8e1d" fill-rule="evenodd"/>
  <path id="Pfad_15" data-name="Pfad 15" d="M61.917,37.921a23.184,23.184,0,0,0-44.224-5.96,18.452,18.452,0,0,1,13.459,6.818,18.555,18.555,0,0,1,14.527-6.794,18.3,18.3,0,0,1,15.1,7.323Q61.31,38.586,61.917,37.921Z" transform="translate(9.653 9.823)" fill="#971c1c"/>
  <path id="Pfad_16" data-name="Pfad 16" d="M73.99,35.978a18.315,18.315,0,0,0-8.377,5.216,23.184,23.184,0,0,0-44.222-5.96q-.528-.028-1.057-.028a18.828,18.828,0,0,0-9.417,2.484,32.457,32.457,0,0,1,63.075-1.713Z" transform="translate(5.956 6.549)" fill="#d62727" fill-rule="evenodd"/>
</svg>
